<svg width="11" height="11" viewBox="0 0 11 11" fill="none" xmlns="http://www.w3.org/2000/svg">
<path d="M10.1255 5.5C10.1255 5.82812 9.86768 6.0625 9.56299 6.0625H5.81299V9.8125C5.81299 10.1406 5.55518 10.3984 5.25049 10.3984C4.92236 10.3984 4.68799 10.1406 4.68799 9.8125V6.0625H0.937988C0.609863 6.0625 0.375488 5.82812 0.375488 5.52344C0.375488 5.19531 0.609863 4.9375 0.937988 4.9375H4.68799V1.1875C4.68799 0.882812 4.92236 0.648438 5.25049 0.648438C5.55518 0.648438 5.81299 0.882812 5.81299 1.1875V4.9375H9.56299C9.86768 4.9375 10.1255 5.19531 10.1255 5.5Z" fill="#0F0F0F"/>
</svg>
