<svg width="16" height="24" viewBox="0 0 16 24" fill="none" xmlns="http://www.w3.org/2000/svg">
<path d="M10.9688 9.03125C11.4062 9.71875 11.6875 10.5 11.8438 11.2812C13.4688 11.9688 14.3125 13.75 13.8438 15.4375C13.4062 17.125 11.75 18.2188 10 17.9688C8.28125 17.75 7 16.2812 7 14.5C7 13.1562 7.71875 12.0312 8.8125 11.4375C8.90625 11.8125 9 12.1562 9 12.5C9 13.375 8.65625 14.2188 8.03125 14.875C8.125 15.5938 8.53125 16.2188 9.15625 16.5938C10.3125 15.5938 11 14.0938 11 12.5C11 9.9375 9.25 7.78125 6.90625 7.15625L8 5L6.96875 4H4L3 5L4.0625 7.1875C1.71875 7.8125 0 9.96875 0 12.5C0 15.5312 2.4375 17.9688 5.5 17.9688C5.71875 17.9688 5.96875 17.9375 6.1875 17.9062C7.65625 19.7188 10.125 20.4375 12.3125 19.6562C14.5312 18.9375 16 16.8438 16 14.5C16 11.625 13.7812 9.28125 10.9688 9.03125ZM2 12.5C2 10.5625 3.5625 9 5.5 9C6.3125 9 7.09375 9.3125 7.6875 9.8125C6.09375 10.7812 5 12.5 5 14.5C5 14.9688 5.0625 15.4688 5.1875 15.9688C3.40625 15.8438 2 14.3438 2 12.5Z" fill="#676767"/>
</svg>
