<svg width="34" height="27" viewBox="0 0 34 27" fill="none" xmlns="http://www.w3.org/2000/svg">
<path d="M20.9258 6.66016L15.7695 13.3398L12.8984 10.8203C12.4883 10.4688 11.9023 10.4688 11.6094 10.8789C11.2578 11.2891 11.2578 11.875 11.668 12.2266L15.3008 15.3906C15.4766 15.5664 15.7109 15.625 15.9453 15.625C15.9453 15.625 16.0039 15.6836 16.0039 15.625C16.2969 15.625 16.5312 15.5078 16.6484 15.2734L22.3906 7.77344C22.7422 7.36328 22.625 6.77734 22.2148 6.48438C21.8047 6.13281 21.2188 6.25 20.9258 6.66016ZM31.0625 17.5C30.5352 17.5 30.125 17.9688 30.125 18.4375C30.125 18.9648 30.5352 19.375 31.0625 19.375C31.5312 19.375 32 19.8438 32 20.3125V24.0625C32 24.5898 31.5312 25 31.0625 25H2.9375C2.41016 25 2 24.5898 2 24.0625V20.3125C2 19.8438 2.41016 19.375 2.9375 19.375C3.40625 19.375 3.875 18.9648 3.875 18.4375C3.875 17.9688 3.40625 17.5 2.9375 17.5C1.35547 17.5 0.125 18.7891 0.125 20.3125V24.0625C0.125 25.6445 1.35547 26.875 2.9375 26.875H31.0625C32.5859 26.875 33.875 25.6445 33.875 24.0625V20.3125C33.875 18.7891 32.5859 17.5 31.0625 17.5ZM4.8125 23.125H29.1875C29.6562 23.125 30.125 22.7148 30.125 22.1875C30.125 21.7188 29.6562 21.25 29.1875 21.25H28.25V3.4375C28.25 1.91406 26.9609 0.625 25.4375 0.625H8.5625C6.98047 0.625 5.75 1.91406 5.75 3.4375V21.25H4.8125C4.28516 21.25 3.875 21.7188 3.875 22.1875C3.875 22.7148 4.28516 23.125 4.8125 23.125ZM7.625 3.4375C7.625 2.96875 8.03516 2.5 8.5625 2.5H25.4375C25.9062 2.5 26.375 2.96875 26.375 3.4375V21.25H7.625V3.4375Z" fill="#EC4C4C"/>
</svg>
