<svg width="30" height="31" viewBox="0 0 30 31" fill="none" xmlns="http://www.w3.org/2000/svg">
<path d="M14.0625 7.3125C14.0625 6.84375 14.4727 6.375 15 6.375C15.4688 6.375 15.9375 6.84375 15.9375 7.3125V15.2812L21.0938 18.7383C21.5625 19.0312 21.6797 19.6172 21.3867 20.0273C21.0938 20.4961 20.5078 20.6133 20.0977 20.3203L14.4727 16.5703C14.1797 16.3945 14.0039 16.1016 14.0039 15.75L14.0625 7.3125ZM15 0.75C23.2617 0.75 30 7.48828 30 15.75C30 24.0703 23.2617 30.75 15 30.75C6.67969 30.75 0 24.0703 0 15.75C0 7.48828 6.67969 0.75 15 0.75ZM1.875 15.75C1.875 23.0156 7.73438 28.875 15 28.875C22.207 28.875 28.125 23.0156 28.125 15.75C28.125 8.54297 22.207 2.625 15 2.625C7.73438 2.625 1.875 8.54297 1.875 15.75Z" fill="#EC4C4C"/>
</svg>
