<svg width="36" height="31" viewBox="0 0 36 31" fill="none" xmlns="http://www.w3.org/2000/svg">
<path d="M27.3164 7.3125C29.0742 7.3125 30.5391 5.84766 30.5391 4.03125C30.5391 2.27344 29.1328 0.75 27.3164 0.75C25.5 0.75 24.0352 2.27344 24.0352 4.03125C24.0352 5.84766 25.5586 7.3125 27.3164 7.3125ZM27.3164 2.625C28.0781 2.625 28.7227 3.26953 28.7227 4.03125C28.7227 4.85156 28.0781 5.4375 27.3164 5.4375C26.4961 5.4375 25.9102 4.85156 25.9102 4.03125C25.9102 3.26953 26.5547 2.625 27.3164 2.625ZM8.625 7.3125C10.3828 7.3125 11.8477 5.84766 11.8477 4.03125C11.8477 2.27344 10.3828 0.75 8.625 0.75C6.80859 0.75 5.34375 2.27344 5.34375 4.03125C5.34375 5.84766 6.80859 7.3125 8.625 7.3125ZM8.625 2.625C9.38672 2.625 9.97266 3.26953 9.97266 4.03125C9.97266 4.85156 9.38672 5.4375 8.625 5.4375C7.80469 5.4375 7.21875 4.85156 7.21875 4.03125C7.21875 3.26953 7.80469 2.625 8.625 2.625ZM11.4375 14.8125C10.9102 14.8125 10.5 15.2812 10.5 15.75V20.4375H6.75V15.75C6.75 15.2812 6.33984 14.8125 5.87109 14.8125C5.34375 14.8125 4.93359 15.2812 4.93359 15.75V29.8125C4.93359 30.3398 5.34375 30.75 5.87109 30.75C6.39844 30.75 6.75 30.3398 6.75 29.8125V22.3125H10.5V29.8125C10.5 30.3398 10.9102 30.75 11.4375 30.75C11.9062 30.75 12.375 30.3398 12.375 29.8125V15.75C12.375 15.2812 11.9062 14.8125 11.4375 14.8125ZM30.5391 15.3398C30.3047 14.8711 29.7188 14.6953 29.25 14.9297C28.7812 15.1641 28.6055 15.75 28.8398 16.2188L31.9453 22.3125H22.7461L25.8516 16.2188C26.0859 15.75 25.9102 15.1641 25.4414 14.9297C24.9727 14.6953 24.3867 14.8711 24.1523 15.3398L20.4609 22.8398C20.3438 23.1328 20.3438 23.4844 20.5195 23.7773C20.6367 24.0703 20.9297 24.1875 21.2227 24.1875H23.5078V29.8125C23.5078 30.3398 23.918 30.75 24.4453 30.75C24.9727 30.75 25.3828 30.3398 25.3828 29.8125V24.1875H29.0742V29.8125C29.0742 30.3398 29.4844 30.75 29.9531 30.75C30.4219 30.75 30.8906 30.3398 30.8906 29.8125V24.1875H33.1758C33.5273 24.1875 33.8203 24.0703 33.9961 23.7773C34.1719 23.4844 34.1719 23.1328 33.9961 22.8398L30.5391 15.3398ZM35.168 17.2148L31.5352 10.7109C30.7734 9.1875 29.1914 8.25 27.4922 8.25H27.1992C25.5 8.25 23.918 9.1875 23.0977 10.7109L19.4648 17.2148C19.1719 17.625 19.3477 18.2109 19.8164 18.4453C20.2266 18.7383 20.8125 18.5625 21.1055 18.0938L24.6797 11.5898C25.2656 10.7109 26.2031 10.125 27.1992 10.125H27.4922C28.4883 10.125 29.4258 10.7109 29.9531 11.5898L33.5859 18.0938C33.7031 18.3867 34.0547 18.5625 34.3477 18.5625C34.4648 18.5625 34.6406 18.5625 34.7578 18.4453C35.2852 18.2109 35.4609 17.625 35.168 17.2148ZM13.3125 10.7109C12.4922 9.1875 10.9102 8.25 9.21094 8.25H7.98047C6.28125 8.25 4.69922 9.1875 3.87891 10.7109L0.304688 17.2148C0.0117188 17.625 0.1875 18.2109 0.65625 18.4453C1.06641 18.7383 1.65234 18.5625 1.94531 18.0938L5.51953 11.5898C6.04688 10.7109 6.98438 10.125 7.98047 10.125H9.21094C10.207 10.125 11.1445 10.7109 11.6719 11.5898L15.3047 18.0938C15.4219 18.3867 15.7734 18.5625 16.125 18.5625C16.2422 18.5625 16.418 18.5625 16.5352 18.4453C17.0039 18.2109 17.1797 17.625 16.8867 17.2148L13.3125 10.7109Z" fill="#EC4C4C"/>
</svg>
