<svg width="12" height="16" viewBox="0 0 12 16" fill="none" xmlns="http://www.w3.org/2000/svg">
<path d="M12 14C12 15.125 11.0938 16 10 16H2C0.875 16 0 15.125 0 14H1C1 14.5625 1.4375 15 2 15H10C10.5312 15 11 14.5625 11 14H12ZM7.5 6C6.65625 6 6 5.34375 6 4.5V1H2C1.4375 1 1 1.46875 1 2V7H0V2C0 0.90625 0.875 0 2 0H6.875C7.25 0 7.65625 0.1875 7.9375 0.46875L11.5312 4.0625C11.8125 4.34375 12 4.75 12 5.125V7H11V6H7.5ZM10.8438 4.78125L7.21875 1.15625C7.15625 1.09375 7.0625 1.0625 7 1.03125V4.5C7 4.78125 7.21875 5 7.5 5H10.9688C10.9375 4.9375 10.9062 4.84375 10.8438 4.78125ZM2.75 8C3.6875 8 4.5 8.8125 4.5 9.75C4.5 10.7188 3.6875 11.5 2.75 11.5H2.5V12.5C2.5 12.7812 2.25 13 2 13C1.71875 13 1.5 12.7812 1.5 12.5V8.5C1.5 8.25 1.71875 8 2 8H2.75ZM3.5 9.75C3.5 9.34375 3.15625 9 2.75 9H2.5V10.5H2.75C3.15625 10.5 3.5 10.1875 3.5 9.75ZM5 8.5C5 8.25 5.21875 8 5.5 8H6.25C7.0625 8 7.75 8.6875 7.75 9.5V11.5C7.75 12.3438 7.0625 13 6.25 13H5.5C5.21875 13 5 12.7812 5 12.5V8.5ZM6 12H6.25C6.5 12 6.75 11.7812 6.75 11.5V9.5C6.75 9.25 6.5 9 6.25 9H6V12ZM10.5 8C10.75 8 11 8.25 11 8.5C11 8.78125 10.75 9 10.5 9H9.5V10H10.5C10.75 10 11 10.25 11 10.5C11 10.7812 10.75 11 10.5 11H9.5V12.5C9.5 12.7812 9.25 13 9 13C8.71875 13 8.5 12.7812 8.5 12.5V8.5C8.5 8.25 8.71875 8 9 8H10.5Z" fill="#00AEEF"/>
</svg>
