<svg width="27" height="31" viewBox="0 0 27 31" fill="none" xmlns="http://www.w3.org/2000/svg">
<path d="M13.3242 9.53906C13.5 10.3008 13.5 11.0625 13.3828 11.7656C13.207 12.5273 12.8555 13.2305 12.3867 13.8164C11.918 14.4023 11.2734 14.8711 10.5703 15.2227C9.86719 15.5742 9.10547 15.75 8.28516 15.75H7.875V29.8125C7.875 30.0469 7.75781 30.2812 7.58203 30.457C7.40625 30.6328 7.17188 30.75 6.9375 30.75C6.64453 30.75 6.41016 30.6328 6.23438 30.457C6.05859 30.2812 6 30.0469 6 29.8125V15.75H5.53125C4.71094 15.75 3.94922 15.5742 3.24609 15.2227C2.54297 14.9297 1.89844 14.4023 1.42969 13.8164C0.960938 13.2305 0.609375 12.5273 0.433594 11.7656C0.257812 11.0039 0.316406 10.2422 0.492188 9.48047L1.78125 1.57031C1.83984 1.33594 1.95703 1.10156 2.13281 0.984375C2.36719 0.867188 2.60156 0.808594 2.83594 0.808594C3.07031 0.867188 3.30469 0.984375 3.42188 1.21875C3.59766 1.39453 3.65625 1.62891 3.59766 1.86328L2.30859 9.83203C2.19141 10.3008 2.19141 10.8281 2.25 11.2969C2.36719 11.7656 2.60156 12.2344 2.89453 12.6445C3.1875 12.9961 3.59766 13.3477 4.06641 13.582C4.53516 13.7578 5.00391 13.875 5.53125 13.875H8.28516C8.8125 13.875 9.28125 13.7578 9.75 13.5234C10.2188 13.3477 10.6289 12.9961 10.9219 12.6445C11.2148 12.2344 11.4492 11.8242 11.5664 11.3555C11.625 10.8281 11.625 10.3594 11.5078 9.89062L10.2188 1.86328C10.1602 1.62891 10.2188 1.39453 10.3359 1.16016C10.5117 0.984375 10.7461 0.808594 10.9805 0.808594C11.2148 0.75 11.4492 0.808594 11.6836 0.984375C11.8594 1.10156 11.9766 1.33594 12.0352 1.57031L13.3242 9.53906ZM4.65234 11.9414C4.53516 11.8828 4.41797 11.8242 4.35938 11.707C4.24219 11.6484 4.18359 11.5312 4.125 11.4141C4.125 11.2969 4.06641 11.1797 4.125 11.0625L4.59375 1.6875C4.59375 1.57031 4.59375 1.39453 4.65234 1.27734C4.71094 1.16016 4.76953 1.10156 4.82812 0.984375C4.94531 0.925781 5.0625 0.867188 5.17969 0.808594C5.29688 0.75 5.41406 0.75 5.53125 0.808594C5.64844 0.808594 5.76562 0.808594 5.88281 0.867188C6 0.925781 6.11719 0.984375 6.17578 1.10156C6.29297 1.16016 6.35156 1.27734 6.41016 1.39453C6.41016 1.51172 6.46875 1.62891 6.46875 1.74609L6 11.1211C5.94141 11.3555 5.88281 11.5898 5.70703 11.7656C5.53125 11.9414 5.29688 12 5.0625 12H5.00391C4.88672 12 4.76953 12 4.65234 11.9414ZM8.10938 11.7656C7.93359 11.5898 7.875 11.3555 7.875 11.1211L7.40625 1.74609C7.34766 1.51172 7.46484 1.27734 7.64062 1.10156C7.75781 0.925781 7.99219 0.808594 8.28516 0.808594C8.40234 0.75 8.51953 0.808594 8.63672 0.808594C8.75391 0.867188 8.87109 0.925781 8.92969 0.984375C9.04688 1.10156 9.10547 1.21875 9.16406 1.33594C9.22266 1.39453 9.22266 1.57031 9.28125 1.6875L9.75 11.0625C9.75 11.1797 9.69141 11.2969 9.69141 11.4141C9.63281 11.5312 9.57422 11.6484 9.45703 11.707C9.39844 11.8242 9.28125 11.8828 9.16406 11.9414C9.04688 12 8.92969 12 8.8125 12C8.51953 12 8.28516 11.9414 8.10938 11.7656ZM26.625 5.37891V29.7539C26.625 30.0469 26.5078 30.2812 26.332 30.457C26.1562 30.6328 25.9219 30.6914 25.6875 30.6914C25.3945 30.6914 25.1602 30.6328 24.9844 30.457C24.8086 30.2812 24.75 30.0469 24.75 29.7539V21.3164H20.9414C20.4141 21.3164 19.9453 21.2578 19.4766 21.082C19.0078 20.8477 18.5977 20.6133 18.2461 20.2617C17.8945 19.9102 17.6602 19.4414 17.4258 19.0312C17.25 18.5625 17.1914 18.0352 17.1914 17.5664L17.25 10.8867C17.25 8.71875 17.8945 6.60938 19.0664 4.85156C20.2969 3.03516 21.9961 1.6875 24.0469 0.867188C24.2812 0.75 24.6328 0.691406 24.9258 0.75C25.2188 0.75 25.5117 0.867188 25.7461 1.04297C26.0391 1.21875 26.2148 1.45312 26.3906 1.74609C26.5078 1.98047 26.625 2.27344 26.625 2.625V5.37891ZM24.75 2.625C23.0508 3.26953 21.6445 4.38281 20.6484 5.90625C19.6523 7.37109 19.0664 9.12891 19.125 10.8867L19.0664 17.5664C19.0664 17.8594 19.125 18.0938 19.1836 18.3281C19.3008 18.5625 19.418 18.7383 19.5938 18.9141C19.7695 19.0898 20.0039 19.207 20.1797 19.3242C20.4141 19.4414 20.707 19.5 20.9414 19.5H24.6328L24.75 2.625Z" fill="#EC4C4C"/>
</svg>
