<svg width="22" height="24" viewBox="0 0 22 24" fill="none" xmlns="http://www.w3.org/2000/svg">
<path d="M20.9688 17.5625C20.7188 16.9375 19.9688 16.625 19.3438 16.875L18.6562 17.1875L17.4375 14.0312C18.9375 12.9688 19.4688 10.875 18.5 9.25L15.8125 4.53125C15.5625 4.125 15.0625 3.9375 14.5938 4.125L11 5.59375L7.40625 4.09375C6.9375 3.90625 6.40625 4.09375 6.15625 4.53125L3.46875 9.21875C2.5 10.8438 3.03125 12.9062 4.53125 14L3.3125 17.1875L2.625 16.875C2 16.625 1.28125 16.9375 1 17.5625C0.9375 17.6875 1 17.8438 1.125 17.9062L6.21875 20C6.3125 20.0625 6.46875 20 6.53125 19.875C6.8125 19.2188 6.5 18.5 5.875 18.2188L5.15625 17.9375L6.40625 14.7188C6.53125 14.7188 6.6875 14.75 6.8125 14.75C8.4375 14.75 9.90625 13.75 10.3438 12.0938L11 9.71875L11.625 12.0938C12.0312 13.7188 13.5312 14.75 15.1562 14.75C15.2812 14.75 15.4375 14.7188 15.5625 14.7188L16.8125 17.9375L16.0938 18.2188C15.4688 18.5 15.1562 19.1875 15.4375 19.875C15.5 20 15.625 20.0625 15.75 20L20.8438 17.9062C20.9688 17.8438 21.0312 17.6875 20.9688 17.5625ZM9.59375 9.09375L6.09375 7.625L7.25 5.65625L10.1875 6.875L9.59375 9.09375ZM12.375 9.09375L11.7812 6.875L14.7188 5.65625L15.875 7.625L12.375 9.09375Z" fill="#676767"/>
</svg>
