<svg width="19" height="24" viewBox="0 0 19 24" fill="none" xmlns="http://www.w3.org/2000/svg">
<path d="M5.75 14.0625L2.6875 10.9688C1.875 10.1562 1.3125 9.125 1.09375 8C0.875 6.84375 1 5.6875 1.4375 4.625C1.53125 4.46875 1.625 4.34375 1.75 4.25C1.875 4.125 2.03125 4.0625 2.1875 4.03125C2.34375 4 2.5 4 2.65625 4.0625C2.8125 4.09375 2.96875 4.1875 3.0625 4.3125L9.28125 10.5312L5.75 14.0625ZM16.625 17.875C16.8438 18.125 17 18.4375 17 18.7812C17 19.0938 16.8438 19.4062 16.625 19.6562C16.375 19.875 16.0625 20.0312 15.75 20.0312C15.4062 20.0312 15.0938 19.875 14.8438 19.6562L10.6875 15.5L12.4688 13.7188L16.625 17.875ZM18.7812 6.9375C18.9062 7.03125 18.9688 7.125 18.9688 7.25C19 7.375 18.9688 7.5 18.9062 7.59375L16.5625 11.2812C16.3438 11.625 16.0625 11.9375 15.7188 12.1562C15.375 12.375 15 12.5 14.5938 12.5625C13.9062 12.625 13.25 12.4375 12.6875 12.0625L5.125 19.6562C4.875 19.875 4.5625 20 4.25 20C3.90625 20 3.59375 19.875 3.34375 19.6562C3.125 19.4062 2.96875 19.0938 2.96875 18.75C2.96875 18.4375 3.125 18.125 3.34375 17.875L10.9375 10.3125C10.5625 9.75 10.375 9.09375 10.4375 8.40625C10.5 8 10.625 7.625 10.8438 7.28125C11.0625 6.9375 11.375 6.65625 11.7188 6.4375L15.4062 4.09375C15.5 4.03125 15.625 4 15.75 4.03125C15.875 4.03125 15.9688 4.09375 16.0625 4.21875C16.125 4.3125 16.1562 4.40625 16.1562 4.53125C16.1562 4.65625 16.0938 4.78125 16 4.875L12.8438 8.0625L13.2188 8.4375L16.875 5.53125C16.9375 5.46875 17.0625 5.4375 17.1562 5.4375C17.25 5.46875 17.3438 5.5 17.4375 5.5625C17.5 5.65625 17.5312 5.75 17.5625 5.84375C17.5625 5.9375 17.5312 6.0625 17.4688 6.125L14.5625 9.78125L14.9375 10.1562L18.125 7C18.2188 6.90625 18.3438 6.84375 18.4688 6.84375C18.5938 6.84375 18.6875 6.875 18.7812 6.9375Z" fill="#676767"/>
</svg>
