<svg width="23" height="31" viewBox="0 0 23 31" fill="none" xmlns="http://www.w3.org/2000/svg">
<path d="M15.9375 12C15.9375 14.6367 13.8281 16.6875 11.25 16.6875C8.61328 16.6875 6.5625 14.6367 6.5625 12C6.5625 9.42188 8.61328 7.3125 11.25 7.3125C13.8281 7.3125 15.9375 9.42188 15.9375 12ZM11.25 14.8125C12.7734 14.8125 14.0625 13.582 14.0625 12C14.0625 10.4766 12.7734 9.1875 11.25 9.1875C9.66797 9.1875 8.4375 10.4766 8.4375 12C8.4375 13.582 9.66797 14.8125 11.25 14.8125ZM22.5 12C22.5 17.1562 15.6445 26.2383 12.5977 30.0469C11.8945 30.9258 10.5469 30.9258 9.84375 30.0469C6.79688 26.2383 0 17.1562 0 12C0 5.78906 4.98047 0.75 11.25 0.75C17.4609 0.75 22.5 5.78906 22.5 12ZM11.25 2.625C6.03516 2.625 1.875 6.84375 1.875 12C1.875 12.9375 2.16797 14.168 2.8125 15.75C3.45703 17.2734 4.33594 18.9141 5.39062 20.5547C7.38281 23.7773 9.72656 26.8828 11.25 28.7578C12.7148 26.8828 15.0586 23.7773 17.0508 20.5547C18.1055 18.9141 18.9844 17.2734 19.6289 15.75C20.2734 14.168 20.625 12.9375 20.625 12C20.625 6.84375 16.4062 2.625 11.25 2.625Z" fill="#EC4C4C"/>
</svg>
