<svg width="90" height="35" viewBox="0 0 90 35" fill="none" xmlns="http://www.w3.org/2000/svg">
<path d="M0.949943 15.1022C0.949943 13.8283 1.17454 12.6648 1.62374 11.6117C2.0803 10.5513 2.68414 9.68607 3.43526 9.01596C4.19374 8.33848 5.05532 7.81933 6.01999 7.45849C6.94784 7.11239 7.91619 6.93934 8.92504 6.93934C8.96923 6.93934 9.00973 6.93934 9.04655 6.93934C9.8713 6.93934 10.6703 7.05348 11.4435 7.28176C12.2167 7.50268 12.942 7.83774 13.6195 8.28693C14.297 8.72877 14.8788 9.31788 15.3648 10.0543C15.8508 10.7907 16.1822 11.6301 16.3589 12.5727H13.0783C12.4082 10.8496 11.0643 9.98799 9.04655 9.98799C7.64741 9.98799 6.51705 10.463 5.65547 11.4129C4.7939 12.3629 4.36311 13.5926 4.36311 15.1022C4.36311 16.008 4.55089 16.8438 4.92645 17.6096C5.30937 18.3755 5.85798 18.9904 6.57228 19.4543C7.29394 19.9182 8.11133 20.1502 9.02446 20.1502C10.0407 20.1502 10.9133 19.9108 11.6423 19.4322C12.3787 18.9462 12.8795 18.2356 13.1446 17.3003H16.4031C16.2411 18.3092 15.9207 19.2039 15.4421 19.9845C14.9634 20.7577 14.3817 21.3763 13.6968 21.8402C13.0194 22.2967 12.2867 22.6429 11.4987 22.8785C10.7182 23.1068 9.90076 23.2209 9.04655 23.2209C8.20706 23.2209 7.39335 23.1105 6.60542 22.8895C5.81748 22.6613 5.08109 22.3225 4.39625 21.8733C3.7114 21.4168 3.11125 20.8718 2.59577 20.2385C2.08766 19.5979 1.68633 18.8394 1.39178 17.9631C1.09722 17.0794 0.949943 16.1258 0.949943 15.1022ZM16.8118 23V22.5471L24.091 7.02771H25.6485L32.8945 22.5471V23H29.382L28.1448 20.3711H21.5615L20.3354 23H16.8118ZM22.6661 17.5213H27.0513L24.8642 12.2966L22.6661 17.5213ZM32.0219 10.1095V7.16026H43.7416V10.1095H39.5331V23H36.2525V10.1095H32.0219ZM45.9728 23V7.16026H55.6711V10.1316H49.386V13.3459H55.2734V16.3062H49.386V19.9182H55.8588V23H45.9728ZM58.9406 22.9779V7.13816H65.7007C66.577 7.13816 67.3723 7.28912 68.0866 7.59104C68.8083 7.89296 69.3974 8.29798 69.8539 8.80609C70.3179 9.3142 70.6713 9.89226 70.9143 10.5403C71.1647 11.1883 71.2899 11.8658 71.2899 12.5727C71.2899 13.5889 71.0432 14.5131 70.5498 15.3452C70.0564 16.17 69.3606 16.7996 68.4622 17.2341L72.041 22.5029V22.9779H68.418L65.1594 17.7532H62.3317V22.9779H58.9406ZM62.2875 14.9697H65.6786C66.3782 14.9623 66.9452 14.723 67.3797 14.2517C67.7994 13.7951 68.0093 13.2355 68.0093 12.5727C68.0093 12.5506 68.0093 12.5285 68.0093 12.5064C68.0093 11.8216 67.7957 11.2509 67.3686 10.7943C66.9489 10.3378 66.3855 10.1095 65.6786 10.1095H62.2875V14.9697ZM72.2177 7.65732V7.16026H75.8629L77.829 10.5403L79.3202 13.5668H79.4307L80.9992 10.4188L82.8991 7.16026H86.489V7.65732L81.0655 16.6707V23H77.6744V16.6707L72.2177 7.65732Z" fill="#010101"/>
<path d="M1.6958 32.4851V28.4295H3.27957C3.53033 28.4295 3.74905 28.4672 3.9357 28.5426C4.12236 28.6181 4.27131 28.7397 4.38255 28.9075C4.49568 29.0753 4.55224 29.2836 4.55224 29.5325C4.55224 29.7305 4.50511 29.903 4.41084 30.0501C4.31656 30.1971 4.1827 30.3037 4.00924 30.3696C4.24303 30.4375 4.42309 30.5544 4.54942 30.7203C4.67574 30.8844 4.7389 31.0927 4.7389 31.3454C4.7389 31.7074 4.62106 31.9883 4.38538 32.1882C4.15159 32.3861 3.84049 32.4851 3.45209 32.4851H1.6958ZM2.17659 32.0694H3.41815C3.66703 32.0694 3.86783 32.0081 4.02055 31.8855C4.17516 31.763 4.25246 31.5829 4.25246 31.3454C4.25246 31.334 4.25246 31.3237 4.25246 31.3142C4.25246 31.0767 4.1695 30.9032 4.00358 30.7939C3.83012 30.6789 3.59821 30.6213 3.30785 30.6213H2.17659V32.0694ZM2.17659 30.2141H3.24846C3.50299 30.2141 3.70568 30.1613 3.85652 30.0557C4.00735 29.9482 4.08277 29.7757 4.08277 29.5382C4.08277 29.0706 3.80467 28.8368 3.24846 28.8368H2.17659V30.2141ZM5.6283 32.4851V28.4295H7.98699V28.8537H6.11475V30.1802H7.92194V30.6016H6.11475V32.0383H8.05204V32.4851H5.6283ZM8.67842 31.3793H9.1479C9.15544 31.5094 9.19503 31.6244 9.26668 31.7243C9.34021 31.8224 9.43448 31.8987 9.5495 31.9534C9.66639 32.0081 9.788 32.0486 9.91433 32.075C10.0407 32.1014 10.1698 32.1146 10.3018 32.1146C10.4055 32.1146 10.5054 32.108 10.6016 32.0948C10.6977 32.0797 10.7948 32.0543 10.8929 32.0185C10.9909 31.9808 11.0758 31.9346 11.1474 31.8799C11.2209 31.8233 11.2803 31.7507 11.3256 31.6621C11.3727 31.5716 11.3982 31.4698 11.4019 31.3567C11.4019 31.2417 11.3803 31.1427 11.3369 31.0597C11.2935 30.9749 11.2464 30.9098 11.1955 30.8646C11.1465 30.8174 11.0663 30.7769 10.9551 30.743C10.8439 30.709 10.7562 30.6873 10.6921 30.6779C10.6299 30.6666 10.5271 30.6515 10.3838 30.6327C10.3178 30.6232 10.2688 30.6166 10.2367 30.6129C10.0708 30.5959 9.92376 30.5752 9.79555 30.5506C9.66922 30.5261 9.53818 30.4875 9.40243 30.4347C9.26668 30.3819 9.15449 30.3187 9.06588 30.2452C8.97726 30.1717 8.90373 30.0746 8.84528 29.9539C8.78872 29.8332 8.76044 29.6947 8.76044 29.5382C8.76044 29.3836 8.78872 29.2412 8.84528 29.1111C8.90185 28.981 8.97726 28.8717 9.07154 28.783C9.16769 28.6944 9.27893 28.619 9.40526 28.5568C9.53158 28.4946 9.66451 28.4493 9.80403 28.421C9.94355 28.3928 10.0859 28.3786 10.2311 28.3786C10.3763 28.3786 10.5177 28.3909 10.6553 28.4154C10.7948 28.4399 10.9296 28.4804 11.0597 28.537C11.1917 28.5936 11.3067 28.6633 11.4048 28.7463C11.5047 28.8292 11.5858 28.9329 11.648 29.0574C11.7102 29.1818 11.7442 29.3204 11.7498 29.4731H11.2973C11.286 29.3506 11.2473 29.245 11.1813 29.1564C11.1154 29.0659 11.0296 28.997 10.924 28.9499C10.8203 28.9028 10.7119 28.8688 10.5987 28.8481C10.4875 28.8255 10.3687 28.8142 10.2424 28.8142C10.1236 28.8142 10.0077 28.8273 9.89453 28.8537C9.78329 28.8801 9.67676 28.9197 9.57495 28.9725C9.47502 29.0253 9.39395 29.1007 9.33173 29.1988C9.27139 29.2949 9.24123 29.4062 9.24123 29.5325C9.24123 29.6211 9.25348 29.7003 9.27799 29.7701C9.3025 29.8398 9.33927 29.8973 9.38829 29.9426C9.43731 29.986 9.4901 30.0237 9.54667 30.0557C9.60323 30.0859 9.67016 30.1104 9.74747 30.1292C9.82477 30.1481 9.89736 30.1632 9.96524 30.1745C10.035 30.1839 10.1132 30.1943 10.2 30.2056C10.2528 30.2113 10.2924 30.216 10.3188 30.2197C10.4206 30.2311 10.5092 30.2424 10.5846 30.2537C10.6619 30.265 10.7468 30.2801 10.8391 30.2989C10.9334 30.3159 11.0145 30.3357 11.0824 30.3583C11.1502 30.3791 11.2219 30.4055 11.2973 30.4375C11.3746 30.4696 11.4397 30.5054 11.4924 30.545C11.5471 30.5827 11.5999 30.6289 11.6508 30.6836C11.7017 30.7382 11.7423 30.7976 11.7724 30.8617C11.8045 30.9258 11.8299 31.0003 11.8488 31.0852C11.8676 31.1681 11.8771 31.2586 11.8771 31.3567C11.8771 31.5245 11.846 31.6763 11.7837 31.812C11.7215 31.9459 11.6395 32.0562 11.5377 32.1429C11.4359 32.2296 11.3152 32.3032 11.1757 32.3635C11.0381 32.4219 10.8976 32.4644 10.7543 32.4908C10.611 32.5172 10.462 32.5322 10.3074 32.536C10.2924 32.536 10.2763 32.536 10.2594 32.536C10.0802 32.536 9.90584 32.5162 9.73615 32.4766C9.55138 32.4333 9.37981 32.3673 9.22143 32.2787C9.06494 32.19 8.93673 32.0684 8.8368 31.9138C8.73875 31.7573 8.68596 31.5792 8.67842 31.3793ZM12.2744 28.8651V28.4295H15.2439V28.8651H13.9939V32.4851H13.5244V28.8651H12.2744ZM17.331 32.4851V28.4295H18.9544C19.3786 28.4295 19.7208 28.5624 19.981 28.8283C20.2431 29.0941 20.3741 29.425 20.3741 29.821C20.3741 30.2131 20.2421 30.5412 19.9782 30.8052C19.7161 31.0673 19.3748 31.1983 18.9544 31.1983H17.8118V32.4851H17.331ZM17.8061 30.7656H18.9544C19.2259 30.7656 19.4521 30.676 19.6331 30.4969C19.8141 30.3178 19.9046 30.0887 19.9046 29.8097C19.9046 29.5325 19.8151 29.3053 19.636 29.1281C19.4587 28.949 19.2315 28.8594 18.9544 28.8594H17.8061V30.7656ZM21.1561 32.4851V28.4295H21.6425V32.0496H23.5543V32.4851H21.1561ZM23.7593 32.4851V32.4201L25.6485 28.4126H25.8691L27.7385 32.4201V32.4851H27.2408L26.7657 31.4839H24.7407L24.2656 32.4851H23.7593ZM24.9019 31.0654H26.6045L25.7532 29.1733L24.9019 31.0654ZM28.0029 30.4573C28.0029 30.1462 28.0567 29.8596 28.1641 29.5976C28.2716 29.3336 28.4168 29.113 28.5997 28.9358C28.7844 28.7566 29.0022 28.6181 29.253 28.52C29.4943 28.4257 29.7507 28.3786 30.0222 28.3786C30.0335 28.3786 30.0439 28.3786 30.0533 28.3786C30.2513 28.3786 30.4436 28.406 30.6303 28.4606C30.8188 28.5134 30.9932 28.5917 31.1535 28.6954C31.3156 28.7972 31.458 28.9301 31.5806 29.0941C31.705 29.2563 31.7964 29.4401 31.8549 29.6456H31.3854C31.2647 29.376 31.0875 29.1724 30.8537 29.0347C30.6199 28.8952 30.3531 28.8255 30.0533 28.8255C30.042 28.8255 30.0307 28.8255 30.0194 28.8255C29.5726 28.8255 29.2087 28.9763 28.9277 29.278C28.6393 29.5872 28.495 29.9803 28.495 30.4573C28.495 30.7628 28.5582 31.039 28.6845 31.286C28.8127 31.5311 28.9956 31.7262 29.2332 31.8714C29.4707 32.0147 29.7422 32.0863 30.0477 32.0863C30.3644 32.0863 30.6444 32.0081 30.8877 31.8516C31.1309 31.6951 31.3053 31.4736 31.4109 31.187H31.8803C31.8238 31.4076 31.7342 31.6055 31.6117 31.7809C31.4891 31.9544 31.3458 32.0948 31.1818 32.2023C31.0177 32.3098 30.8405 32.3918 30.6501 32.4483C30.4597 32.503 30.2607 32.5304 30.0533 32.5304C29.6763 32.5304 29.3331 32.4474 29.0239 32.2815C28.7147 32.1156 28.4667 31.8742 28.2801 31.5575C28.0953 31.2388 28.0029 30.8721 28.0029 30.4573ZM32.7217 32.4851V28.4295H35.0803V28.8537H33.2081V30.1802H35.0153V30.6016H33.2081V32.0383H35.1454V32.4851H32.7217ZM35.7718 31.3793H36.2412C36.2488 31.5094 36.2884 31.6244 36.36 31.7243C36.4336 31.8224 36.5278 31.8987 36.6428 31.9534C36.7597 32.0081 36.8814 32.0486 37.0077 32.075C37.134 32.1014 37.2632 32.1146 37.3951 32.1146C37.4988 32.1146 37.5988 32.108 37.6949 32.0948C37.7911 32.0797 37.8882 32.0543 37.9862 32.0185C38.0843 31.9808 38.1691 31.9346 38.2408 31.8799C38.3143 31.8233 38.3737 31.7507 38.4189 31.6621C38.4661 31.5716 38.4915 31.4698 38.4953 31.3567C38.4953 31.2417 38.4736 31.1427 38.4302 31.0597C38.3869 30.9749 38.3397 30.9098 38.2888 30.8646C38.2398 30.8174 38.1597 30.7769 38.0484 30.743C37.9372 30.709 37.8495 30.6873 37.7854 30.6779C37.7232 30.6666 37.6205 30.6515 37.4772 30.6327C37.4112 30.6232 37.3621 30.6166 37.3301 30.6129C37.1642 30.5959 37.0171 30.5752 36.8889 30.5506C36.7626 30.5261 36.6315 30.4875 36.4958 30.4347C36.36 30.3819 36.2478 30.3187 36.1592 30.2452C36.0706 30.1717 35.9971 30.0746 35.9386 29.9539C35.8821 29.8332 35.8538 29.6947 35.8538 29.5382C35.8538 29.3836 35.8821 29.2412 35.9386 29.1111C35.9952 28.981 36.0706 28.8717 36.1649 28.783C36.261 28.6944 36.3723 28.619 36.4986 28.5568C36.6249 28.4946 36.7579 28.4493 36.8974 28.421C37.0369 28.3928 37.1793 28.3786 37.3244 28.3786C37.4696 28.3786 37.611 28.3909 37.7487 28.4154C37.8882 28.4399 38.023 28.4804 38.1531 28.537C38.2851 28.5936 38.4001 28.6633 38.4981 28.7463C38.5981 28.8292 38.6791 28.9329 38.7413 29.0574C38.8036 29.1818 38.8375 29.3204 38.8432 29.4731H38.3907C38.3793 29.3506 38.3407 29.245 38.2747 29.1564C38.2087 29.0659 38.1229 28.997 38.0173 28.9499C37.9136 28.9028 37.8052 28.8688 37.6921 28.8481C37.5809 28.8255 37.4621 28.8142 37.3357 28.8142C37.217 28.8142 37.101 28.8273 36.9879 28.8537C36.8766 28.8801 36.7701 28.9197 36.6683 28.9725C36.5684 29.0253 36.4873 29.1007 36.4251 29.1988C36.3647 29.2949 36.3346 29.4062 36.3346 29.5325C36.3346 29.6211 36.3468 29.7003 36.3713 29.7701C36.3959 29.8398 36.4326 29.8973 36.4816 29.9426C36.5307 29.986 36.5835 30.0237 36.64 30.0557C36.6966 30.0859 36.7635 30.1104 36.8408 30.1292C36.9181 30.1481 36.9907 30.1632 37.0586 30.1745C37.1284 30.1839 37.2066 30.1943 37.2933 30.2056C37.3461 30.2113 37.3857 30.216 37.4121 30.2197C37.5139 30.2311 37.6025 30.2424 37.678 30.2537C37.7553 30.265 37.8401 30.2801 37.9325 30.2989C38.0268 30.3159 38.1078 30.3357 38.1757 30.3583C38.2436 30.3791 38.3152 30.4055 38.3907 30.4375C38.468 30.4696 38.533 30.5054 38.5858 30.545C38.6405 30.5827 38.6933 30.6289 38.7442 30.6836C38.7951 30.7382 38.8356 30.7976 38.8658 30.8617C38.8978 30.9258 38.9233 31.0003 38.9421 31.0852C38.961 31.1681 38.9704 31.2586 38.9704 31.3567C38.9704 31.5245 38.9393 31.6763 38.8771 31.812C38.8149 31.9459 38.7329 32.0562 38.631 32.1429C38.5292 32.2296 38.4086 32.3032 38.269 32.3635C38.1314 32.4219 37.9909 32.4644 37.8476 32.4908C37.7044 32.5172 37.5554 32.5322 37.4008 32.536C37.3857 32.536 37.3697 32.536 37.3527 32.536C37.1736 32.536 36.9992 32.5162 36.8295 32.4766C36.6447 32.4333 36.4732 32.3673 36.3148 32.2787C36.1583 32.19 36.0301 32.0684 35.9302 31.9138C35.8321 31.7573 35.7793 31.5792 35.7718 31.3793ZM41.3969 32.4851V28.4295H43.8065V28.8594H41.8833V30.347H43.6509V30.7769H41.8833V32.4851H41.3969ZM44.3904 30.4573C44.3904 30.2028 44.4253 29.9652 44.4951 29.7446C44.5648 29.5221 44.6619 29.3289 44.7864 29.1648C44.9127 28.9989 45.0607 28.8566 45.2304 28.7378C45.402 28.619 45.5905 28.5294 45.796 28.4691C46.0034 28.4088 46.2203 28.3786 46.4465 28.3786C46.7293 28.3786 46.9952 28.4276 47.2441 28.5257C47.4948 28.6218 47.7135 28.7576 47.9002 28.9329C48.0868 29.1083 48.2339 29.3279 48.3414 29.5919C48.4489 29.854 48.5026 30.1424 48.5026 30.4573C48.5026 30.7609 48.4517 31.0418 48.3499 31.3001C48.2499 31.5565 48.1104 31.7762 47.9313 31.9591C47.7522 32.1401 47.5344 32.2815 47.278 32.3833C47.0216 32.4851 46.7425 32.536 46.4409 32.536C46.1562 32.536 45.8884 32.4879 45.6377 32.3918C45.3888 32.2956 45.172 32.1599 44.9872 31.9845C44.8024 31.8073 44.6563 31.5876 44.5488 31.3256C44.4432 31.0616 44.3904 30.7722 44.3904 30.4573ZM44.8769 30.4573C44.8769 30.9419 45.0249 31.3359 45.3209 31.6395C45.6188 31.9412 45.9921 32.092 46.4409 32.092C46.8934 32.092 47.2686 31.9412 47.5665 31.6395C47.8662 31.3359 48.0161 30.9419 48.0161 30.4573C48.0161 30.1349 47.9473 29.8493 47.8097 29.6004C47.6739 29.3496 47.4873 29.1573 47.2497 29.0234C47.0121 28.8877 46.7444 28.8198 46.4465 28.8198C46.1543 28.8198 45.8894 28.8867 45.6518 29.0206C45.4142 29.1526 45.2257 29.344 45.0862 29.5947C44.9466 29.8455 44.8769 30.133 44.8769 30.4573ZM49.3863 32.4851V28.4239H51.004C51.4151 28.4239 51.7478 28.5483 52.0024 28.7972C52.2588 29.0442 52.387 29.3543 52.387 29.7276C52.387 30.0331 52.2984 30.2923 52.1212 30.5054C51.9439 30.7184 51.7101 30.8608 51.4198 30.9324L52.568 32.4144V32.4851H52.0589L50.9333 30.9975H49.8728V32.4851H49.3863ZM49.8671 30.5959H51.004C51.2661 30.5959 51.4839 30.5148 51.6573 30.3527C51.8308 30.1905 51.9175 29.9803 51.9175 29.722C51.9175 29.4637 51.8317 29.2544 51.6602 29.0941C51.4886 28.9339 51.2699 28.8537 51.004 28.8537H49.8671V30.5959ZM54.8926 32.4851V28.4295H56.4764C56.7272 28.4295 56.9459 28.4672 57.1326 28.5426C57.3192 28.6181 57.4682 28.7397 57.5794 28.9075C57.6925 29.0753 57.7491 29.2836 57.7491 29.5325C57.7491 29.7305 57.702 29.903 57.6077 30.0501C57.5134 30.1971 57.3795 30.3037 57.2061 30.3696C57.4399 30.4375 57.6199 30.5544 57.7463 30.7203C57.8726 30.8844 57.9358 31.0927 57.9358 31.3454C57.9358 31.7074 57.8179 31.9883 57.5822 32.1882C57.3484 32.3861 57.0373 32.4851 56.6489 32.4851H54.8926ZM55.3734 32.0694H56.615C56.8639 32.0694 57.0647 32.0081 57.2174 31.8855C57.372 31.763 57.4493 31.5829 57.4493 31.3454C57.4493 31.334 57.4493 31.3237 57.4493 31.3142C57.4493 31.0767 57.3663 30.9032 57.2004 30.7939C57.027 30.6789 56.7951 30.6213 56.5047 30.6213H55.3734V32.0694ZM55.3734 30.2141H56.4453C56.6998 30.2141 56.9025 30.1613 57.0534 30.0557C57.2042 29.9482 57.2796 29.7757 57.2796 29.5382C57.2796 29.0706 57.0015 28.8368 56.4453 28.8368H55.3734V30.2141ZM58.8252 32.4851V28.4295H61.1838V28.8537H59.3116V30.1802H61.1188V30.6016H59.3116V32.0383H61.2489V32.4851H58.8252ZM61.8753 31.3793H62.3447C62.3523 31.5094 62.3919 31.6244 62.4635 31.7243C62.5371 31.8224 62.6313 31.8987 62.7463 31.9534C62.8632 32.0081 62.9849 32.0486 63.1112 32.075C63.2375 32.1014 63.3667 32.1146 63.4986 32.1146C63.6023 32.1146 63.7023 32.108 63.7984 32.0948C63.8946 32.0797 63.9917 32.0543 64.0897 32.0185C64.1878 31.9808 64.2726 31.9346 64.3443 31.8799C64.4178 31.8233 64.4772 31.7507 64.5224 31.6621C64.5696 31.5716 64.595 31.4698 64.5988 31.3567C64.5988 31.2417 64.5771 31.1427 64.5337 31.0597C64.4904 30.9749 64.4432 30.9098 64.3923 30.8646C64.3433 30.8174 64.2632 30.7769 64.1519 30.743C64.0407 30.709 63.953 30.6873 63.8889 30.6779C63.8267 30.6666 63.7239 30.6515 63.5807 30.6327C63.5147 30.6232 63.4656 30.6166 63.4336 30.6129C63.2677 30.5959 63.1206 30.5752 62.9924 30.5506C62.8661 30.5261 62.735 30.4875 62.5993 30.4347C62.4635 30.3819 62.3513 30.3187 62.2627 30.2452C62.1741 30.1717 62.1006 30.0746 62.0421 29.9539C61.9856 29.8332 61.9573 29.6947 61.9573 29.5382C61.9573 29.3836 61.9856 29.2412 62.0421 29.1111C62.0987 28.981 62.1741 28.8717 62.2684 28.783C62.3645 28.6944 62.4758 28.619 62.6021 28.5568C62.7284 28.4946 62.8614 28.4493 63.0009 28.421C63.1404 28.3928 63.2828 28.3786 63.4279 28.3786C63.5731 28.3786 63.7145 28.3909 63.8522 28.4154C63.9917 28.4399 64.1265 28.4804 64.2566 28.537C64.3886 28.5936 64.5036 28.6633 64.6016 28.7463C64.7015 28.8292 64.7826 28.9329 64.8448 29.0574C64.9071 29.1818 64.941 29.3204 64.9467 29.4731H64.4942C64.4828 29.3506 64.4442 29.245 64.3782 29.1564C64.3122 29.0659 64.2264 28.997 64.1208 28.9499C64.0171 28.9028 63.9087 28.8688 63.7956 28.8481C63.6844 28.8255 63.5656 28.8142 63.4392 28.8142C63.3205 28.8142 63.2045 28.8273 63.0914 28.8537C62.9801 28.8801 62.8736 28.9197 62.7718 28.9725C62.6719 29.0253 62.5908 29.1007 62.5286 29.1988C62.4682 29.2949 62.4381 29.4062 62.4381 29.5325C62.4381 29.6211 62.4503 29.7003 62.4748 29.7701C62.4994 29.8398 62.5361 29.8973 62.5851 29.9426C62.6342 29.986 62.687 30.0237 62.7435 30.0557C62.8001 30.0859 62.867 30.1104 62.9443 30.1292C63.0216 30.1481 63.0942 30.1632 63.1621 30.1745C63.2318 30.1839 63.3101 30.1943 63.3968 30.2056C63.4496 30.2113 63.4892 30.216 63.5156 30.2197C63.6174 30.2311 63.706 30.2424 63.7815 30.2537C63.8588 30.265 63.9436 30.2801 64.036 30.2989C64.1303 30.3159 64.2113 30.3357 64.2792 30.3583C64.3471 30.3791 64.4187 30.4055 64.4942 30.4375C64.5715 30.4696 64.6365 30.5054 64.6893 30.545C64.744 30.5827 64.7968 30.6289 64.8477 30.6836C64.8986 30.7382 64.9391 30.7976 64.9693 30.8617C65.0013 30.9258 65.0268 31.0003 65.0456 31.0852C65.0645 31.1681 65.0739 31.2586 65.0739 31.3567C65.0739 31.5245 65.0428 31.6763 64.9806 31.812C64.9184 31.9459 64.8364 32.0562 64.7345 32.1429C64.6327 32.2296 64.5121 32.3032 64.3725 32.3635C64.2349 32.4219 64.0944 32.4644 63.9511 32.4908C63.8078 32.5172 63.6589 32.5322 63.5043 32.536C63.4892 32.536 63.4732 32.536 63.4562 32.536C63.2771 32.536 63.1027 32.5162 62.933 32.4766C62.7482 32.4333 62.5767 32.3673 62.4183 32.2787C62.2618 32.19 62.1336 32.0684 62.0336 31.9138C61.9356 31.7573 61.8828 31.5792 61.8753 31.3793ZM65.4712 28.8651V28.4295H68.4408V28.8651H67.1908V32.4851H66.7213V28.8651H65.4712ZM70.5279 32.4851V28.4295H71.9646C72.2662 28.4295 72.5425 28.4833 72.7932 28.5907C73.044 28.6963 73.2514 28.8415 73.4154 29.0263C73.5813 29.2092 73.7096 29.4231 73.8001 29.6683C73.8906 29.9115 73.9358 30.1726 73.9358 30.4517C73.9358 30.7345 73.8906 31.0003 73.8001 31.2492C73.7096 31.4962 73.5813 31.7111 73.4154 31.894C73.2514 32.0769 73.044 32.2211 72.7932 32.3267C72.5443 32.4323 72.2681 32.4851 71.9646 32.4851H70.5279ZM71.0143 32.0439H71.9533C72.2568 32.0439 72.5227 31.9751 72.7508 31.8375C72.9808 31.6998 73.1552 31.5113 73.274 31.2718C73.3947 31.0324 73.455 30.7609 73.455 30.4573C73.455 30.1575 73.3947 29.8889 73.274 29.6513C73.1552 29.4137 72.9808 29.2252 72.7508 29.0857C72.5208 28.9461 72.2549 28.8764 71.9533 28.8764H71.0143V32.0439ZM74.2058 32.4851V32.4201L76.0951 28.4126H76.3156L78.1851 32.4201V32.4851H77.6873L77.2122 31.4839H75.1872L74.7121 32.4851H74.2058ZM75.3484 31.0654H77.051L76.1997 29.1733L75.3484 31.0654ZM78.045 28.4946V28.4295H78.5711L79.1621 29.3741L79.7476 30.364H79.7645L80.35 29.3798L80.9411 28.4295H81.4558V28.5002L79.9964 30.8221V32.4851H79.51V30.8221L78.045 28.4946ZM81.805 31.3793H82.2745C82.282 31.5094 82.3216 31.6244 82.3933 31.7243C82.4668 31.8224 82.5611 31.8987 82.6761 31.9534C82.793 32.0081 82.9146 32.0486 83.0409 32.075C83.1672 32.1014 83.2964 32.1146 83.4284 32.1146C83.5321 32.1146 83.632 32.108 83.7282 32.0948C83.8243 32.0797 83.9214 32.0543 84.0195 32.0185C84.1175 31.9808 84.2023 31.9346 84.274 31.8799C84.3475 31.8233 84.4069 31.7507 84.4522 31.6621C84.4993 31.5716 84.5248 31.4698 84.5285 31.3567C84.5285 31.2417 84.5068 31.1427 84.4635 31.0597C84.4201 30.9749 84.373 30.9098 84.3221 30.8646C84.273 30.8174 84.1929 30.7769 84.0817 30.743C83.9704 30.709 83.8828 30.6873 83.8187 30.6779C83.7564 30.6666 83.6537 30.6515 83.5104 30.6327C83.4444 30.6232 83.3954 30.6166 83.3633 30.6129C83.1974 30.5959 83.0503 30.5752 82.9221 30.5506C82.7958 30.5261 82.6648 30.4875 82.529 30.4347C82.3933 30.3819 82.2811 30.3187 82.1925 30.2452C82.1038 30.1717 82.0303 30.0746 81.9719 29.9539C81.9153 29.8332 81.887 29.6947 81.887 29.5382C81.887 29.3836 81.9153 29.2412 81.9719 29.1111C82.0284 28.981 82.1038 28.8717 82.1981 28.783C82.2943 28.6944 82.4055 28.619 82.5318 28.5568C82.6582 28.4946 82.7911 28.4493 82.9306 28.421C83.0701 28.3928 83.2125 28.3786 83.3577 28.3786C83.5028 28.3786 83.6443 28.3909 83.7819 28.4154C83.9214 28.4399 84.0562 28.4804 84.1863 28.537C84.3183 28.5936 84.4333 28.6633 84.5314 28.7463C84.6313 28.8292 84.7124 28.9329 84.7746 29.0574C84.8368 29.1818 84.8707 29.3204 84.8764 29.4731H84.4239C84.4126 29.3506 84.3739 29.245 84.3079 29.1564C84.2419 29.0659 84.1562 28.997 84.0506 28.9499C83.9469 28.9028 83.8385 28.8688 83.7253 28.8481C83.6141 28.8255 83.4953 28.8142 83.369 28.8142C83.2502 28.8142 83.1342 28.8273 83.0211 28.8537C82.9099 28.8801 82.8033 28.9197 82.7015 28.9725C82.6016 29.0253 82.5205 29.1007 82.4583 29.1988C82.398 29.2949 82.3678 29.4062 82.3678 29.5325C82.3678 29.6211 82.3801 29.7003 82.4046 29.7701C82.4291 29.8398 82.4659 29.8973 82.5149 29.9426C82.5639 29.986 82.6167 30.0237 82.6733 30.0557C82.7298 30.0859 82.7967 30.1104 82.8741 30.1292C82.9514 30.1481 83.0239 30.1632 83.0918 30.1745C83.1616 30.1839 83.2398 30.1943 83.3266 30.2056C83.3793 30.2113 83.4189 30.216 83.4453 30.2197C83.5472 30.2311 83.6358 30.2424 83.7112 30.2537C83.7885 30.265 83.8733 30.2801 83.9657 30.2989C84.06 30.3159 84.1411 30.3357 84.2089 30.3583C84.2768 30.3791 84.3485 30.4055 84.4239 30.4375C84.5012 30.4696 84.5662 30.5054 84.619 30.545C84.6737 30.5827 84.7265 30.6289 84.7774 30.6836C84.8283 30.7382 84.8688 30.7976 84.899 30.8617C84.9311 30.9258 84.9565 31.0003 84.9754 31.0852C84.9942 31.1681 85.0037 31.2586 85.0037 31.3567C85.0037 31.5245 84.9725 31.6763 84.9103 31.812C84.8481 31.9459 84.7661 32.0562 84.6643 32.1429C84.5625 32.2296 84.4418 32.3032 84.3023 32.3635C84.1646 32.4219 84.0242 32.4644 83.8809 32.4908C83.7376 32.5172 83.5886 32.5322 83.434 32.536C83.4189 32.536 83.4029 32.536 83.3859 32.536C83.2068 32.536 83.0324 32.5162 82.8627 32.4766C82.678 32.4333 82.5064 32.3673 82.348 32.2787C82.1915 32.19 82.0633 32.0684 81.9634 31.9138C81.8653 31.7573 81.8125 31.5792 81.805 31.3793Z" fill="#010101"/>
</svg>
