<svg width="20" height="16" viewBox="0 0 20 16" fill="none" xmlns="http://www.w3.org/2000/svg">
<path d="M17.3999 0.25C16.1343 0.25 15.1499 1.26953 15.1499 2.5C15.1499 3.76562 16.1343 4.75 17.3999 4.75C18.6304 4.75 19.6499 3.76562 19.6499 2.5C19.6499 1.26953 18.6304 0.25 17.3999 0.25ZM16.5562 5.76953L10.9663 10.4453C10.1577 11.1133 8.85693 11.1133 8.04834 10.4453L2.2124 5.55859V4.75C2.2124 4.46875 2.4585 4.1875 2.7749 4.1875H14.4819C14.2007 3.69531 14.0249 3.13281 14.0249 2.5H2.7749C1.50928 2.5 0.524902 3.51953 0.524902 4.75V13.75C0.524902 15.0156 1.50928 16 2.7749 16H16.2749C17.5054 16 18.5249 15.0156 18.5249 13.75V5.69922C18.1382 5.80469 17.7866 5.875 17.3999 5.875C17.0835 5.875 16.8022 5.83984 16.5562 5.76953ZM16.8374 13.75C16.8374 14.0664 16.5562 14.3125 16.2749 14.3125H2.7749C2.4585 14.3125 2.2124 14.0664 2.2124 13.75V7.73828L6.99365 11.7461C7.69678 12.3086 8.57568 12.625 9.5249 12.625C10.439 12.625 11.3179 12.3086 12.021 11.7461L16.8374 7.73828V13.75Z" fill="black"/>
</svg>
