<svg width="16" height="24" viewBox="0 0 16 24" fill="none" xmlns="http://www.w3.org/2000/svg">
<path d="M15.9688 15.5C15.9688 16.875 14.625 18 13 18C11.3438 18 10 16.875 10 15.5C10 14.125 11.3438 13.0312 13 13.0312C13.3438 13.0312 13.6562 13.0938 14 13.1875V8.65625L6 11L5.96875 17.5312C5.96875 18.9062 4.65625 20 2.96875 20C1.28125 20 0 18.9062 0 17.5C0 16.125 1.3125 15.0312 2.96875 15.0312C3.3125 15.0312 3.65625 15.0938 3.96875 15.1875V7.96875C3.96875 7.5625 4.28125 7.125 4.65625 7L14.625 4.0625C14.75 4.03125 14.9062 4 15 4C15.5312 4 15.9688 4.46875 16 5L15.9688 15.5Z" fill="#676767"/>
</svg>
