<svg width="30" height="31" viewBox="0 0 30 31" fill="none" xmlns="http://www.w3.org/2000/svg">
<path d="M16.875 19.5H12.1875V22.3125C12.1875 22.8398 11.7188 23.25 11.25 23.25C10.7227 23.25 10.3125 22.8398 10.3125 22.3125V9.65625C10.3125 8.89453 10.8984 8.25 11.7188 8.25H16.875C19.9805 8.25 22.5 10.7695 22.5 13.875C22.5 16.9805 19.9805 19.5 16.875 19.5ZM16.875 17.625C18.9258 17.625 20.625 15.9844 20.625 13.875C20.625 11.8242 18.9258 10.125 16.875 10.125H12.1875V17.625H16.875ZM30 15.75C30 24.0703 23.2617 30.75 15 30.75C6.67969 30.75 0 24.0703 0 15.75C0 7.48828 6.67969 0.75 15 0.75C23.2617 0.75 30 7.48828 30 15.75ZM15 2.625C7.73438 2.625 1.875 8.54297 1.875 15.75C1.875 23.0156 7.73438 28.875 15 28.875C22.207 28.875 28.125 23.0156 28.125 15.75C28.125 8.54297 22.207 2.625 15 2.625Z" fill="#EC4C4C"/>
</svg>
