<svg width="15" height="14" viewBox="0 0 15 14" fill="none" xmlns="http://www.w3.org/2000/svg">
<path d="M1.11885 10.6175C1.63999 9.63219 3.44973 8.56379 3.5294 8.51707C3.76195 8.38469 4.00461 8.3146 4.2317 8.3146C4.56936 8.3146 4.84576 8.46931 5.01316 8.75068C5.27789 9.06736 5.6062 9.43751 5.68588 9.49487C6.30253 9.9133 6.78526 9.8658 7.31939 9.3316L10.3004 6.3499C10.8311 5.81908 10.8799 5.33031 10.4644 4.71694C10.4063 4.63673 10.0362 4.30811 9.71956 4.04309C9.51764 3.92291 9.37905 3.74432 9.31832 3.52524C9.23761 3.23374 9.29704 2.89085 9.48754 2.55678C9.53244 2.47995 10.6012 0.669695 11.5859 0.148735C11.7696 0.0513952 11.9767 0 12.1844 0C12.5264 0 12.8483 0.13342 13.0901 0.375081L13.7488 1.03361C14.7906 2.07528 15.1677 3.25607 14.8703 4.54302C14.6222 5.61557 13.8991 6.75691 12.7208 7.93511L8.90436 11.7521C7.41308 13.2436 5.99135 14 4.67862 14C4.67862 14 4.67862 14 4.67836 14C3.71289 14 2.81283 13.5896 2.00386 12.7805L1.34542 12.122C0.945217 11.722 0.854381 11.1172 1.11885 10.6175Z" fill="#0095CC"/>
</svg>
