<svg width="13" height="13" viewBox="0 0 13 13" fill="none" xmlns="http://www.w3.org/2000/svg">
<path d="M11.8828 11.8672L8.55469 8.5625C9.30469 7.69531 9.72656 6.59375 9.72656 5.375C9.72656 2.70312 7.52344 0.5 4.85156 0.5C2.15625 0.5 0 2.70312 0 5.375C0 8.07031 2.17969 10.25 4.85156 10.25C6.04688 10.25 7.14844 9.82812 8.01562 9.07812L11.3203 12.4062C11.4141 12.4766 11.5078 12.5 11.625 12.5C11.7188 12.5 11.8125 12.4766 11.8828 12.4062C12.0234 12.2656 12.0234 12.0078 11.8828 11.8672ZM4.875 9.5C2.57812 9.5 0.75 7.64844 0.75 5.375C0.75 3.10156 2.57812 1.25 4.875 1.25C7.14844 1.25 9 3.10156 9 5.375C9 7.67188 7.14844 9.5 4.875 9.5Z" fill="#868686"/>
</svg>
