<svg width="14" height="24" viewBox="0 0 14 24" fill="none" xmlns="http://www.w3.org/2000/svg">
<path d="M3 6.9375V9.5C3 11.7188 4.78125 13.5 7 13.5C9.1875 13.5 11 11.7188 11 9.5V6.9375C11.5625 6.71875 12 6.15625 12 5.5C12 4.6875 11.3125 4 10.5 4C10.0312 4 9.625 4.21875 9.375 4.53125C9.09375 4.21875 8.6875 4 8.25 4C7.71875 4 7.25 4.28125 7 4.6875C6.71875 4.28125 6.25 4 5.75 4C5.28125 4 4.875 4.21875 4.625 4.53125C4.34375 4.21875 3.9375 4 3.5 4C2.65625 4 2 4.6875 2 5.5C2 6.15625 2.40625 6.71875 3 6.9375ZM4.5 9H9.5V9.5C9.5 10.9062 8.375 12 7 12C5.59375 12 4.5 10.9062 4.5 9.5V9ZM11 15.1562V14.0625L4 16.8438V20H13C13.5312 20 14 19.5625 14 19C14 17.1562 12.7188 15.5938 11 15.1562ZM6.5 18C6.21875 18 6 17.7812 6 17.5C6 17.25 6.21875 17 6.5 17C6.75 17 7 17.25 7 17.5C7 17.7812 6.75 18 6.5 18ZM9.5 18C9.21875 18 9 17.7812 9 17.5C9 17.25 9.21875 17 9.5 17C9.75 17 10 17.25 10 17.5C10 17.7812 9.75 18 9.5 18ZM3 14V15.1562C1.25 15.5938 0 17.1562 0 19C0 19.5625 0.4375 20 1 20H3V16.1875L6.3125 14.8438L3 14Z" fill="#676767"/>
</svg>
