<svg width="20" height="24" viewBox="0 0 20 24" fill="none" xmlns="http://www.w3.org/2000/svg">
<path d="M13.5 7.5C11.9062 7.5 10.5938 8.5625 10.1562 10H16.8125C16.375 8.5625 15.0625 7.5 13.5 7.5ZM6.84375 7.65625C7.25 7.90625 7.5 8.3125 7.5 8.78125V9.25C7.5 9.6875 7.8125 10 8.25 10C8.65625 10 9 9.6875 9 9.25V8.75C9 7.78125 8.46875 6.875 7.625 6.375C7.21875 6.15625 7 5.71875 7 5.28125V4.75C7 4.34375 6.65625 4 6.25 4C5.8125 4 5.5 4.34375 5.5 4.75V5.28125C5.5 6.25 6 7.15625 6.84375 7.65625ZM18.5 12H17.9688C17.9688 11.4688 17.5312 11.0312 17 11H8H3C2.4375 11 2 11.4688 2 12H1.5C0.9375 12 0.5 12.4688 0.5 13C0.5 13.5625 0.9375 14 1.5 14H2.25C2.78125 16.1562 4.15625 17.9375 5.96875 19C5.96875 19.5625 6.4375 20 6.96875 20H12.9688C13.5 20 13.9688 19.5625 13.9688 19C15.7812 17.9375 17.1562 16.1562 17.6875 14H18.5C19.0312 14 19.5 13.5625 19.5 13C19.5 12.4688 19.0312 12 18.5 12ZM3.34375 7.65625C3.75 7.90625 4 8.3125 4 8.78125V9.25C4 9.6875 4.3125 10 4.75 10C5.15625 10 5.5 9.6875 5.5 9.25V8.75C5.5 7.78125 4.96875 6.875 4.125 6.375C3.71875 6.15625 3.5 5.71875 3.5 5.28125V4.75C3.5 4.34375 3.15625 4 2.75 4C2.3125 4 2 4.34375 2 4.75V5.28125C2 6.25 2.5 7.15625 3.34375 7.65625Z" fill="#676767"/>
</svg>
