<svg width="273" height="271" viewBox="0 0 273 271" fill="none" xmlns="http://www.w3.org/2000/svg">
<path d="M32.844 232.688C39.9492 239.994 46.3069 244.288 51.1745 247.531C98.6483 279.151 152.916 270.037 169.694 266.921C196.764 261.896 219.614 258.35 239.246 240.658C283.859 200.455 281.688 116.587 247.6 64.6338C243.557 58.4735 209.521 8.14676 155.136 1.05542C153.805 0.881635 152.814 0.783576 151.944 0.691342C143.531 -0.197017 91.3961 -4.88639 48.8843 30.6402C42.7991 35.7257 33.0065 44.8986 23.9245 58.8891C-9.2804 110.043 -9.38553 189.269 32.844 232.688Z" fill="#75BDF1"/>
<path d="M207.154 12.6743C213.643 13.2374 218.619 18.6589 218.637 25.156C218.75 64.8924 218.937 201.953 216.34 250.465C216.065 255.605 211.842 259.642 206.682 259.697C181.164 259.971 107.762 260.475 66.0908 257.816C57.4117 257.262 50.6578 250.092 50.6675 241.417C50.7182 199.712 51.3858 82.4246 57.1129 28.8133C57.7991 22.39 62.9752 17.3763 69.4322 16.8744C97.2643 14.7112 171.172 9.55293 207.154 12.6743Z" fill="url(#paint0_linear_324_913)"/>
<path d="M208.394 35.5702C208.896 69.5608 210.322 182.635 207.832 224.368C207.468 230.468 202.718 235.284 196.852 235.488C172.703 236.328 110.775 237.952 75.4873 234.079C69.1334 233.382 64.2766 227.888 64.1072 221.235C63.2244 186.548 60.8407 81.2328 63.2614 39.9663C63.6478 33.3828 68.6896 28.1303 75.0103 27.705C101.159 25.9477 168.303 21.8943 198.311 24.3875C203.944 24.8555 208.308 29.6856 208.394 35.5702Z" fill="#F6F6F6"/>
<path d="M150.045 18.5841C150.025 19.523 149.273 20.2812 148.332 20.3104C143.686 20.4511 130.595 20.8512 124.745 21.0609C123.591 21.1026 122.709 20.0492 122.953 18.9239C122.973 18.888 123.123 17.4453 124.601 17.3424C128.558 17.0676 140.499 16.3278 148.39 16.7822C150.01 16.8754 150.098 18.7142 150.045 18.5841Z" fill="url(#paint1_linear_324_913)"/>
<path d="M180.056 138.22C180.056 138.22 146.77 129.891 111.602 134.914C101.707 136.328 92.9424 142.071 87.6027 150.499C77.9814 165.686 64.3783 192.751 67.2564 220.977L82.3575 224.702C82.3575 224.702 92.7934 191.204 104.54 177.572C104.54 177.572 118.451 209.201 117.748 226.57C117.729 227.062 117.697 227.541 117.653 228.008C116.057 245.002 184.431 231.179 184.431 231.179L180.056 138.22Z" fill="url(#paint2_linear_324_913)"/>
<path d="M144.072 109.865L151.159 132.381C151.818 134.475 151.163 136.719 149.516 137.984C145.723 140.898 138.225 145.537 129.066 145.404C127.389 145.379 125.98 143.952 125.863 142.202L123.345 104.568L144.072 109.865Z" fill="url(#paint3_linear_324_913)"/>
<path d="M116.63 85.1868C116.63 85.1868 113.877 102.919 115.611 111.393C117.344 119.867 116.968 125.759 127.091 124.904C137.215 124.048 144.103 117.101 146.33 107.623C146.33 107.623 149.876 92.9898 146.94 88.1471C144.005 83.3043 116.63 85.1868 116.63 85.1868Z" fill="url(#paint4_linear_324_913)"/>
<path d="M141.447 102.508L140.224 102.829C140.224 102.829 142.549 91.1897 137.64 90.5383C132.732 89.8868 114.241 90.9169 108.818 85.6974C103.591 80.6653 104.808 72.0769 109.109 68.6351C109.382 68.4176 109.783 68.4672 110.018 68.7235L110.623 69.3788C111.037 69.8283 111.788 69.5468 111.804 68.9371C111.818 68.3584 112.513 68.0507 112.935 68.4487C114.583 70.0021 118.518 72.2012 127.344 71.5439C139.868 70.6128 149.035 73.3653 151.398 81.5489C151.548 82.0673 152.183 82.2081 152.557 81.8197C153.298 81.0527 154.643 80.4314 156.946 81.5188C160.95 83.41 161.489 90.8985 155.844 98.6529C155.577 99.0209 155.719 99.5529 156.153 99.6957C157.679 100.201 160.152 101.705 155.825 105.709C151.398 109.805 148.271 110.305 147.044 110.312C146.714 110.314 146.431 110.088 146.367 109.765L144.896 102.349C144.821 101.966 144.436 101.726 144.057 101.825L141.447 102.508Z" fill="#6B4015"/>
<path d="M141.548 104.114C141.548 104.114 141.52 93.256 146.839 94.9084C152.158 96.5609 147.468 106.918 143.896 108.261L141.548 104.114Z" fill="url(#paint5_linear_324_913)"/>
<path d="M178.668 209.544C180.142 199.158 170.542 180.282 166.083 174.49C164.807 172.832 164.093 170.807 164.076 168.718C163.945 154.01 170.137 144.563 180.057 138.22C180.057 138.22 216.061 180.062 206.893 212.245C205.904 215.717 204.371 218.702 202.428 221.266C200.982 209.139 185.749 210.103 178.668 209.544Z" fill="url(#paint6_linear_324_913)"/>
<path d="M179.178 201.916L180.55 201.76C179.387 191.576 170.427 179.003 166.629 174.07L165.534 174.908C169.262 179.751 178.054 192.075 179.178 201.916Z" fill="url(#paint7_linear_324_913)"/>
<path d="M178.486 209.056C182.536 209.063 201.164 209.699 202.884 220.786C186.816 241.983 142.53 234.335 142.53 234.335V226.087C142.53 226.087 170.291 221.058 177.349 209.688C177.593 209.295 178.021 209.055 178.486 209.056Z" fill="url(#paint8_linear_324_913)"/>
<path d="M146.33 232.539C146.33 232.539 139.791 217.147 128.269 222.607C116.747 228.066 117.653 231.639 117.653 231.639L146.33 232.539Z" fill="#FAB688"/>
<path d="M147.796 235.731C147.704 236.895 146.71 237.782 145.539 237.741L85.8323 235.663C84.9048 235.631 84.0979 235.018 83.8205 234.134L82.087 228.602C81.6616 227.243 82.633 225.848 84.0589 225.773L105.832 224.619C106.03 224.609 106.228 224.625 106.421 224.668L146.088 233.431C147.154 233.665 147.882 234.647 147.796 235.731Z" fill="#4E4E4E"/>
<path d="M107.776 233.558L106.133 225.922L83.7684 226.986L85.2401 233.322L107.776 233.558Z" fill="#414141"/>
<path d="M119.241 151.364C120.507 161.681 126.201 203.598 127.831 215.574C128.06 217.258 126.719 218.74 125.016 218.69L28.4216 215.933C27.1572 215.897 26.0797 215.009 25.8053 213.778L10.7791 146.277C10.382 144.493 11.806 142.825 13.6358 142.931L116.663 148.951C117.994 149.03 119.079 150.043 119.241 151.364Z" fill="url(#paint9_linear_324_913)"/>
<path d="M80.4137 193.694L94.6895 234.113L61.4943 234.815L58.7301 193.937C58.6006 192.018 60.195 190.426 62.1182 190.553L77.6203 191.58C78.8925 191.665 79.9904 192.496 80.4137 193.694Z" fill="url(#paint10_linear_324_913)"/>
<path d="M108.148 234.689C108.514 235.801 107.684 236.945 106.51 236.945H54.5239C53.572 236.945 52.8001 236.175 52.8001 235.226V233.002C52.8001 232.023 53.6177 231.241 54.5979 231.283L106.584 233.507C107.301 233.537 107.924 234.008 108.148 234.689Z" fill="#424242"/>
<path d="M120.699 194.008L121.384 193.922L116.638 156.587C116.344 154.271 114.435 152.489 112.099 152.349L23.0676 146.985L23.0258 147.673L112.057 153.036C114.061 153.156 115.701 154.686 115.953 156.674L120.699 194.008Z" fill="#F6F6F6"/>
<path d="M122.728 204.551L123.749 212.635L123.063 212.722L122.042 204.638L122.728 204.551Z" fill="#F6F6F6"/>
<path d="M126.113 115.565C136.84 116.374 143.075 105.31 143.137 105.198L142.418 104.804C142.359 104.911 136.371 115.519 126.175 114.751L126.113 115.565Z" fill="#A3A709"/>
<path d="M121.737 115.151C121.737 115.785 122.252 116.299 122.888 116.299H125.958C126.594 116.299 127.109 115.785 127.109 115.151C127.109 114.517 126.594 114.002 125.958 114.002H122.888C122.253 114.003 121.737 114.517 121.737 115.151Z" fill="url(#paint11_linear_324_913)"/>
<path d="M142.393 92.9243C142.393 92.9243 138.542 73.226 127.2 71.3677C127.2 71.3677 130.413 69.7541 133.761 71.5046C137.11 73.2541 145.575 82.8426 145.229 93.4097C142.926 94.2369 142.393 92.9243 142.393 92.9243Z" fill="url(#paint12_linear_324_913)"/>
<path d="M144.364 91.9924C150.261 93.1866 149.536 100.625 149.536 100.625C149.961 106.023 148.381 108.698 146.357 109.974C144.974 110.845 143.234 110.926 141.774 110.192C140.314 109.457 139.347 108.012 139.226 106.385C139.117 104.916 138.993 103.52 138.884 103.024C138.618 101.822 138.466 90.7982 144.364 91.9924Z" fill="url(#paint13_linear_324_913)"/>
<path d="M143.826 93.8716C145.05 93.659 146.257 94.3085 146.749 95.4464C150.274 103.59 145.946 108.887 143.823 108.998C141.584 109.114 141.629 98.3697 142.105 95.6153C142.303 94.4609 143.038 94.0085 143.826 93.8716Z" fill="#59B6FA"/>
<path d="M58.7226 128.158C38.6483 128.158 22.3749 111.926 22.3749 91.9017C22.3749 71.8777 38.6483 55.645 58.7226 55.645C78.7969 55.645 95.0703 71.8777 95.0703 91.9017C95.0703 111.926 78.7969 128.158 58.7226 128.158Z" fill="white"/>
<path d="M57.367 114.689C55.6549 114.801 54.0626 114.007 53.1759 112.587L38.2928 88.7491C36.898 86.5151 37.6495 83.4549 39.9708 81.9151C42.2902 80.3762 45.2998 80.9384 46.6926 83.1714L57.0137 99.7192L70.6324 72.0519C71.8549 69.5693 74.7914 68.4295 77.1897 69.5072C79.5879 70.5839 80.5418 73.4674 79.3212 75.949L61.7216 111.732C60.9157 113.37 59.3136 114.498 57.5383 114.676C57.4809 114.681 57.4234 114.686 57.367 114.689Z" fill="#44AAF3"/>
<defs>
<linearGradient id="paint0_linear_324_913" x1="-10.8737" y1="362.574" x2="296.814" y2="-104.79" gradientUnits="userSpaceOnUse">
<stop stop-color="#2E2E2E"/>
<stop offset="1" stop-color="#212121"/>
</linearGradient>
<linearGradient id="paint1_linear_324_913" x1="150.056" y1="18.8504" x2="122.913" y2="18.8504" gradientUnits="userSpaceOnUse">
<stop stop-color="#44AAF3"/>
<stop offset="1" stop-color="#1D6AA2"/>
</linearGradient>
<linearGradient id="paint2_linear_324_913" x1="147.024" y1="208.148" x2="1.76749" y2="29.796" gradientUnits="userSpaceOnUse">
<stop stop-color="#44AAF3"/>
<stop offset="0.390625" stop-color="#43AAF4"/>
<stop offset="1" stop-color="#44AAF3"/>
</linearGradient>
<linearGradient id="paint3_linear_324_913" x1="149.799" y1="166.302" x2="133.599" y2="122.325" gradientUnits="userSpaceOnUse">
<stop stop-color="#FAB688"/>
<stop offset="1" stop-color="#FAB688"/>
</linearGradient>
<linearGradient id="paint4_linear_324_913" x1="118.864" y1="99.5742" x2="166.506" y2="119.555" gradientUnits="userSpaceOnUse">
<stop stop-color="#FAB688"/>
<stop offset="1" stop-color="#E9A77B"/>
</linearGradient>
<linearGradient id="paint5_linear_324_913" x1="122.097" y1="91.8643" x2="169.739" y2="111.845" gradientUnits="userSpaceOnUse">
<stop stop-color="#FEBBBA"/>
<stop offset="1" stop-color="#FF928E"/>
</linearGradient>
<linearGradient id="paint6_linear_324_913" x1="183.261" y1="178.636" x2="38.0046" y2="0.284062" gradientUnits="userSpaceOnUse">
<stop stop-color="#44AAF3"/>
<stop offset="1" stop-color="#094A79"/>
</linearGradient>
<linearGradient id="paint7_linear_324_913" x1="193.355" y1="99.824" x2="155.441" y2="265.861" gradientUnits="userSpaceOnUse">
<stop stop-color="white"/>
<stop offset="1" stop-color="white"/>
</linearGradient>
<linearGradient id="paint8_linear_324_913" x1="182.92" y1="196.627" x2="140.306" y2="247.32" gradientUnits="userSpaceOnUse">
<stop stop-color="#F8B587"/>
<stop offset="1" stop-color="#FFC69F"/>
</linearGradient>
<linearGradient id="paint9_linear_324_913" x1="88.2841" y1="191.004" x2="-31.3693" y2="125.758" gradientUnits="userSpaceOnUse">
<stop stop-color="#2E2E2E"/>
<stop offset="1" stop-color="#4A4A4A"/>
</linearGradient>
<linearGradient id="paint10_linear_324_913" x1="75.0688" y1="169.025" x2="77.0637" y2="224.022" gradientUnits="userSpaceOnUse">
<stop stop-color="#2E2E2E"/>
<stop offset="1" stop-color="#222222"/>
</linearGradient>
<linearGradient id="paint11_linear_324_913" x1="127.109" y1="115.151" x2="121.737" y2="115.151" gradientUnits="userSpaceOnUse">
<stop stop-color="#A9BC00"/>
<stop offset="1" stop-color="#8F9F00"/>
</linearGradient>
<linearGradient id="paint12_linear_324_913" x1="96.6138" y1="68.0277" x2="213.881" y2="108.776" gradientUnits="userSpaceOnUse">
<stop stop-color="#4BAEF5"/>
<stop offset="1" stop-color="#32A0EF"/>
</linearGradient>
<linearGradient id="paint13_linear_324_913" x1="126.038" y1="66.5045" x2="145.01" y2="103.542" gradientUnits="userSpaceOnUse">
<stop stop-color="#44AAF3"/>
<stop offset="1" stop-color="#6495B8"/>
</linearGradient>
</defs>
</svg>
