<svg width="16" height="24" viewBox="0 0 16 24" fill="none" xmlns="http://www.w3.org/2000/svg">
<path d="M3.78125 7.09375C3.90625 7.25 4 7.46875 4 7.6875V9H5V11H4V15H5V17H4V18C4 18.5625 3.53125 19 3 19H1C0.4375 19 0 18.5625 0 18V7.6875C0 7.46875 0.0625 7.25 0.1875 7.09375L1.59375 5.21875C1.6875 5.09375 1.8125 5 2 5C2.15625 5 2.28125 5.09375 2.375 5.21875L3.78125 7.09375ZM9.78125 7.09375C9.90625 7.25 10 7.46875 10 7.6875V9H11V11H10V15H11V17H10V18C10 18.5625 9.53125 19 9 19H7C6.4375 19 6 18.5625 6 18V7.6875C6 7.46875 6.0625 7.25 6.1875 7.09375L7.59375 5.21875C7.6875 5.09375 7.8125 5 8 5C8.15625 5 8.28125 5.09375 8.375 5.21875L9.78125 7.09375ZM14 5C14.1562 5 14.2812 5.09375 14.375 5.21875L15.7812 7.09375C15.9062 7.25 16 7.46875 16 7.6875V18C16 18.5625 15.5312 19 15 19H13C12.4375 19 12 18.5625 12 18V7.6875C12 7.46875 12.0625 7.25 12.1875 7.09375L13.5938 5.21875C13.6875 5.09375 13.8125 5 14 5Z" fill="#676767"/>
</svg>
