<svg width="16" height="24" viewBox="0 0 16 24" fill="none" xmlns="http://www.w3.org/2000/svg">
<path d="M15.375 15.2188C15.2188 15.2812 15.0625 15.2812 14.9375 15.2188L14.0625 14.8125L13.1875 15.2188C13 15.3125 12.8125 15.25 12.7812 15.2188L11.9062 14.8125L11.0312 15.2188C10.9062 15.2812 10.75 15.2812 10.5938 15.2188L9.75 14.8125L8.875 15.2188C8.71875 15.2812 8.5625 15.2812 8.4375 15.2188L7.5625 14.8125L6.6875 15.2188C6.5625 15.2812 6.40625 15.2812 6.28125 15.2188L5.40625 14.8125L4.53125 15.2188C4.40625 15.2812 4.25 15.2812 4.09375 15.2188L3.5 14.9375V16.5938L4.25 16.9688L5 16.5625C5.15625 16.5 5.3125 16.5 5.46875 16.5625L6.25 16.9688C6.59375 16.7812 7.09375 16.5 7.1875 16.5H12.2812C12.375 16.5 12.875 16.7812 13.2188 16.9688L14 16.5625C14.1562 16.5 14.3125 16.5 14.4688 16.5625L15.25 16.9688L16 16.5938V14.9375L15.375 15.2188ZM6 17.9688L5.25 17.5625L4.46875 17.9688C4.3125 18.0312 4.15625 18.0312 4 17.9688L3.5 17.6875V18.75C3.5 19.4688 4.03125 20 4.75 20H5.75C6.4375 20 7 19.4688 7 18.75V17.6875L6.46875 17.9688C6.25 18.0625 6.0625 18 6 17.9688ZM6.40625 12.4688L5.5 12.0625L4.5625 12.4688C4.4375 12.5312 4.28125 12.5312 4.15625 12.4688L3.5 12.1875V13.8438L4.3125 14.2188L5.1875 13.8125C5.3125 13.75 5.46875 13.75 5.625 13.8125L6.5 14.2188L7.34375 13.8125C7.5 13.75 7.65625 13.75 7.78125 13.8125L8.65625 14.2188L9.53125 13.8125C9.65625 13.75 9.8125 13.75 9.9375 13.8125L10.8125 14.2188L11.6875 13.8125C11.8125 13.75 11.9688 13.75 12.125 13.8125L13 14.2188L13.8438 13.8125C14 13.75 14.1562 13.75 14.2812 13.8125L15.1562 14.2188L15.9375 13.8438C15.75 12.8125 14.8438 12 13.75 12H7.84375L6.8125 12.4688C6.625 12.5625 6.46875 12.5 6.40625 12.4688ZM15 17.9688L14.25 17.5625L13.4688 17.9688C13.3125 18.0312 13.1562 18.0312 13 17.9688L12.5 17.6875V18.75C12.5 19.4688 13.0312 20 13.75 20H14.75C15.4375 20 16 19.4688 16 18.75V17.6875L15.4688 17.9688C15.25 18.0625 15.0625 18 15 17.9688ZM3.5 11.0625L4.375 11.4688L5.28125 11.0625C5.40625 11 5.5625 11 5.6875 11.0625L6.625 11.4688L7.5 11.0625V5C7.5 4.46875 7.03125 4 6.5 4C5.9375 4 5.5 4.46875 5.5 5V6H1.9375C0.875 6 0 6.90625 0 7.96875C0 8.84375 0.5625 9.625 1.40625 9.875L3.5 10.4375V11.0625ZM5.5 7.75C5.90625 7.75 6.25 8.09375 6.25 8.5C6.25 8.9375 5.90625 9.25 5.5 9.25C5.0625 9.25 4.75 8.9375 4.75 8.5C4.75 8.09375 5.0625 7.75 5.5 7.75Z" fill="#676767"/>
</svg>
