<svg width="20" height="24" viewBox="0 0 20 24" fill="none" xmlns="http://www.w3.org/2000/svg">
<path d="M18.9688 15.7812L11.5625 10.875L11.8125 10.6875C12.875 9.96875 13.5 8.78125 13.5 7.5C13.5 5.59375 11.9062 4 10 4C8.3125 4 6.875 5.1875 6.5625 6.8125C6.4375 7.34375 6.78125 7.875 7.34375 8C7.875 8.09375 8.40625 7.75 8.5 7.21875C8.65625 6.53125 9.28125 6 10 6C10.8125 6 11.5 6.6875 11.5 7.5C11.5 8.125 11.1875 8.6875 10.6875 9.0625L0.96875 15.8125C0.34375 16.25 0 16.9375 0 17.7188C0 18.9688 1.03125 20 2.28125 20H17.6875C18.9375 20 20 18.9688 20 17.7188C20 16.9375 19.5938 16.2188 18.9688 15.7812ZM17.6875 18H2.28125C2.125 18 2 17.875 2 17.6875C2 17.5938 2.03125 17.5 2.125 17.4375L9.8125 12.0938L17.8438 17.4688C17.9375 17.5312 18 17.625 18 17.7188C18 17.875 17.8438 18 17.6875 18Z" fill="#676767"/>
</svg>
