<svg width="22" height="24" viewBox="0 0 22 24" fill="none" xmlns="http://www.w3.org/2000/svg">
<path d="M10.9688 15C9.84375 15 8.96875 15.875 8.96875 17C8.96875 18.0938 9.84375 19 10.9688 19C12.0625 19 12.9688 18.0938 12.9688 17C12.9688 15.875 12.0938 15 10.9688 15ZM11 10C8.78125 10 6.6875 10.7812 5.03125 12.25C4.625 12.625 4.59375 13.25 4.9375 13.6875C5.3125 14.0938 5.9375 14.125 6.34375 13.75C7.625 12.625 9.28125 12 11 12C12.6875 12 14.3438 12.625 15.625 13.75C15.8125 13.9375 16.0312 14 16.2812 14C16.5625 14 16.8125 13.9062 17.0312 13.6875C17.4062 13.25 17.3438 12.625 16.9375 12.25C15.2812 10.8125 13.1875 10 11 10ZM20.6875 8.90625C18.0625 6.40625 14.625 5 11 5C7.34375 5 3.90625 6.40625 1.28125 8.90625C0.90625 9.28125 0.875 9.9375 1.25 10.3125C1.65625 10.7188 2.28125 10.75 2.6875 10.3438C4.90625 8.1875 7.875 7 11 7C14.0938 7 17.0312 8.1875 19.2812 10.3438C19.5 10.5312 19.75 10.625 20 10.625C20.25 10.625 20.5 10.5312 20.7188 10.3125C21.0938 9.9375 21.0625 9.28125 20.6875 8.90625Z" fill="#676767"/>
</svg>
